<svg xmlns="http://www.w3.org/2000/svg" version="1.1" xmlns:xlink="http://www.w3.org/1999/xlink" xmlns:svgjs="http://svgjs.dev/svgjs" width="1500" height="174" viewBox="0 0 1500 174"><g transform="matrix(1,0,0,1,-0.9090909090909918,-0.8277039604892451)"><svg viewBox="0 0 396 46" data-background-color="#ffffff" preserveAspectRatio="xMidYMid meet" height="174" width="1500" xmlns="http://www.w3.org/2000/svg" xmlns:xlink="http://www.w3.org/1999/xlink"><g id="tight-bounds" transform="matrix(1,0,0,1,0.2400000000000091,0.21881828840520257)"><svg viewBox="0 0 395.52 45.56204435343399" height="45.56204435343399" width="395.52"><g><svg viewBox="0 0 496.32214896253623 57.17397796476221" height="45.56204435343399" width="395.52"><g transform="matrix(1,0,0,1,100.80214896253631,7.90175817023848)"><svg viewBox="0 0 395.5199999999999 41.37046162428525" height="41.37046162428525" width="395.5199999999999"><g id="textblocktransform"><svg viewBox="0 0 395.5199999999999 41.37046162428525" height="41.37046162428525" width="395.5199999999999" id="textblock"><g><svg viewBox="0 0 395.5199999999999 41.37046162428525" height="41.37046162428525" width="395.5199999999999"><g transform="matrix(1,0,0,1,0,0)"><svg width="395.5199999999999" viewBox="1.4333333333349998 -37 358.48666666666503 37.5" height="41.37046162428525" data-palette-color="#4790fc"><path d="M15.5-31.35L16.4-31.15 4.25-0.95Q4.05-0.45 3.7-0.2 3.35 0.05 2.9 0.05L2.9 0.05Q2.2 0.05 1.85-0.33 1.5-0.7 1.45-1.25L1.45-1.25Q1.4-1.5 1.5-1.85L1.5-1.85 14.7-34.15Q14.95-34.7 15.33-34.93 15.7-35.15 16.2-35.15L16.2-35.15Q16.7-35.15 17.07-34.88 17.45-34.6 17.65-34.15L17.65-34.15 30.8-2Q30.9-1.7 30.9-1.4L30.9-1.4Q30.9-0.7 30.45-0.33 30 0.05 29.4 0.05L29.4 0.05Q28.9 0.05 28.53-0.23 28.15-0.5 27.95-0.95L27.95-0.95 15.5-31.35ZM24.5-10.1L7.15-10.1 8.4-13.05 23.9-13.05 24.5-10.1ZM39.6-35.5L39.6-1.5Q39.6-0.9 39.15-0.45 38.7 0 38.1 0L38.1 0Q37.45 0 37.02-0.45 36.6-0.9 36.6-1.5L36.6-1.5 36.6-35.5Q36.6-36.1 37.05-36.55 37.5-37 38.1-37L38.1-37Q38.75-37 39.17-36.55 39.6-36.1 39.6-35.5L39.6-35.5ZM66.65-25.4L66.65-25.4Q67.3-25.4 67.72-24.95 68.15-24.5 68.15-23.9L68.15-23.9 68.15-9.8Q68.15-4.85 65.34-2.25 62.55 0.35 57.8 0.35L57.8 0.35Q53.1 0.35 50.32-2.25 47.55-4.85 47.55-9.8L47.55-9.8 47.55-23.9Q47.55-24.5 47.97-24.95 48.4-25.4 49.05-25.4L49.05-25.4Q49.7-25.4 50.12-24.95 50.55-24.5 50.55-23.9L50.55-23.9 50.55-9.8Q50.55-6.2 52.47-4.33 54.4-2.45 57.8-2.45L57.8-2.45Q61.25-2.45 63.2-4.33 65.15-6.2 65.15-9.8L65.15-9.8 65.15-23.9Q65.15-24.5 65.55-24.95 65.95-25.4 66.65-25.4ZM87.49-25.75L87.49-25.75Q90.59-25.75 92.79-24.13 94.99-22.5 95.79-19.3L95.79-19.3 95.09-19.1 95.39-20Q96.04-21.5 97.57-22.83 99.09-24.15 101.04-24.95 102.99-25.75 104.99-25.75L104.99-25.75Q108.14-25.75 110.07-24.4 111.99-23.05 112.87-20.78 113.74-18.5 113.74-15.65L113.74-15.65 113.74-1.5Q113.74-0.9 113.32-0.45 112.89 0 112.24 0L112.24 0Q111.59 0 111.17-0.45 110.74-0.9 110.74-1.5L110.74-1.5 110.74-15.5Q110.74-17.55 110.09-19.25 109.44-20.95 108.04-21.95 106.64-22.95 104.29-22.95L104.29-22.95Q102.24-22.95 100.37-21.95 98.49-20.95 97.32-19.25 96.14-17.55 96.14-15.5L96.14-15.5 96.14-1.5Q96.14-0.9 95.72-0.45 95.29 0 94.64 0L94.64 0Q93.99 0 93.57-0.45 93.14-0.9 93.14-1.5L93.14-1.5 93.14-15.65Q93.14-17.7 92.54-19.35 91.94-21 90.59-21.98 89.24-22.95 86.94-22.95L86.94-22.95Q84.89-22.95 83.07-21.98 81.24-21 80.12-19.35 78.99-17.7 78.99-15.65L78.99-15.65 78.99-1.5Q78.99-0.9 78.54-0.45 78.09 0 77.49 0L77.49 0Q76.79 0 76.39-0.45 75.99-0.9 75.99-1.5L75.99-1.5 75.99-23.9Q75.99-24.5 76.42-24.95 76.84-25.4 77.49-25.4L77.49-25.4Q78.14-25.4 78.57-24.95 78.99-24.5 78.99-23.9L78.99-23.9 78.99-19.25 77.64-17.4Q77.79-18.9 78.62-20.4 79.44-21.9 80.79-23.1 82.14-24.3 83.87-25.03 85.59-25.75 87.49-25.75ZM133.64-26.15L133.64-26.15Q136.94-26.15 138.92-24.83 140.89-23.5 141.77-21.23 142.64-18.95 142.64-16.2L142.64-16.2 142.64-1.5Q142.64-0.9 142.19-0.45 141.74 0 141.14 0L141.14 0Q140.44 0 140.04-0.45 139.64-0.9 139.64-1.5L139.64-1.5 139.64-16.05Q139.64-18.05 138.99-19.7 138.34-21.35 136.87-22.35 135.39-23.35 132.99-23.35L132.99-23.35Q130.84-23.35 128.92-22.35 126.99-21.35 125.79-19.7 124.59-18.05 124.59-16.05L124.59-16.05 124.59-1.5Q124.59-0.9 124.14-0.45 123.69 0 123.09 0L123.09 0Q122.39 0 121.99-0.45 121.59-0.9 121.59-1.5L121.59-1.5 121.59-23.9Q121.59-24.5 122.02-24.95 122.44-25.4 123.09-25.4L123.09-25.4Q123.74-25.4 124.17-24.95 124.59-24.5 124.59-23.9L124.59-23.9 124.59-19.7 123.44-17.9Q123.54-19.5 124.47-20.98 125.39-22.45 126.84-23.63 128.29-24.8 130.07-25.48 131.84-26.15 133.64-26.15ZM153.39-24.5L153.39-1.5Q153.39-0.9 152.94-0.45 152.49 0 151.89 0L151.89 0Q151.24 0 150.81-0.45 150.39-0.9 150.39-1.5L150.39-1.5 150.39-24.5Q150.39-25.1 150.81-25.55 151.24-26 151.89-26L151.89-26Q152.54-26 152.96-25.55 153.39-25.1 153.39-24.5L153.39-24.5ZM151.89-29.35L151.89-29.35Q150.84-29.35 150.31-29.83 149.79-30.3 149.79-31.2L149.79-31.2 149.79-31.7Q149.79-32.6 150.36-33.08 150.94-33.55 151.94-33.55L151.94-33.55Q152.89-33.55 153.41-33.08 153.94-32.6 153.94-31.7L153.94-31.7 153.94-31.2Q153.94-30.3 153.41-29.83 152.89-29.35 151.89-29.35ZM201.13-32.4L201.13-32.4Q201.73-32 201.83-31.38 201.93-30.75 201.53-30.15L201.53-30.15Q201.18-29.7 200.63-29.65 200.08-29.6 199.58-29.85L199.58-29.85Q197.68-31.1 195.51-31.8 193.33-32.5 190.83-32.5L190.83-32.5Q187.78-32.5 185.16-31.43 182.53-30.35 180.58-28.33 178.63-26.3 177.56-23.55 176.48-20.8 176.48-17.5L176.48-17.5Q176.48-14.1 177.58-11.33 178.68-8.55 180.66-6.55 182.63-4.55 185.23-3.5 187.83-2.45 190.83-2.45L190.83-2.45Q193.28-2.45 195.46-3.15 197.63-3.85 199.53-5.05L199.53-5.05Q200.03-5.35 200.61-5.28 201.18-5.2 201.53-4.7L201.53-4.7Q201.98-4.15 201.86-3.53 201.73-2.9 201.18-2.55L201.18-2.55Q199.93-1.75 198.23-1.05 196.53-0.35 194.63 0.08 192.73 0.5 190.83 0.5L190.83 0.5Q187.23 0.5 184.08-0.8 180.93-2.1 178.48-4.48 176.03-6.85 174.66-10.15 173.28-13.45 173.28-17.5L173.28-17.5Q173.28-21.4 174.63-24.68 175.98-27.95 178.38-30.35 180.78-32.75 183.98-34.1 187.18-35.45 190.83-35.45L190.83-35.45Q193.68-35.45 196.33-34.65 198.98-33.85 201.13-32.4ZM231.08-12.8L231.08-12.8Q231.08-9 229.41-5.98 227.73-2.95 224.88-1.23 222.03 0.5 218.43 0.5L218.43 0.5Q214.88 0.5 212.01-1.23 209.13-2.95 207.46-5.98 205.78-9 205.78-12.8L205.78-12.8Q205.78-16.65 207.46-19.65 209.13-22.65 212.01-24.4 214.88-26.15 218.43-26.15L218.43-26.15Q222.03-26.15 224.88-24.4 227.73-22.65 229.41-19.65 231.08-16.65 231.08-12.8ZM228.08-12.8L228.08-12.8Q228.08-15.85 226.83-18.23 225.58-20.6 223.41-21.98 221.23-23.35 218.43-23.35L218.43-23.35Q215.68-23.35 213.51-21.98 211.33-20.6 210.06-18.23 208.78-15.85 208.78-12.8L208.78-12.8Q208.78-9.75 210.06-7.4 211.33-5.05 213.51-3.68 215.68-2.3 218.43-2.3L218.43-2.3Q221.23-2.3 223.41-3.68 225.58-5.05 226.83-7.4 228.08-9.75 228.08-12.8ZM249.28-26.15L249.28-26.15Q252.58-26.15 254.55-24.83 256.53-23.5 257.4-21.23 258.28-18.95 258.28-16.2L258.28-16.2 258.28-1.5Q258.28-0.9 257.83-0.45 257.38 0 256.78 0L256.78 0Q256.08 0 255.68-0.45 255.28-0.9 255.28-1.5L255.28-1.5 255.28-16.05Q255.28-18.05 254.63-19.7 253.98-21.35 252.5-22.35 251.03-23.35 248.63-23.35L248.63-23.35Q246.48-23.35 244.55-22.35 242.63-21.35 241.43-19.7 240.23-18.05 240.23-16.05L240.23-16.05 240.23-1.5Q240.23-0.9 239.78-0.45 239.33 0 238.73 0L238.73 0Q238.03 0 237.63-0.45 237.23-0.9 237.23-1.5L237.23-1.5 237.23-23.9Q237.23-24.5 237.65-24.95 238.08-25.4 238.73-25.4L238.73-25.4Q239.38-25.4 239.8-24.95 240.23-24.5 240.23-23.9L240.23-23.9 240.23-19.7 239.08-17.9Q239.18-19.5 240.1-20.98 241.03-22.45 242.48-23.63 243.93-24.8 245.7-25.48 247.48-26.15 249.28-26.15ZM278.18-26.15L278.18-26.15Q281.48-26.15 283.45-24.83 285.43-23.5 286.3-21.23 287.18-18.95 287.18-16.2L287.18-16.2 287.18-1.5Q287.18-0.9 286.73-0.45 286.28 0 285.68 0L285.68 0Q284.98 0 284.57-0.45 284.18-0.9 284.18-1.5L284.18-1.5 284.18-16.05Q284.18-18.05 283.53-19.7 282.88-21.35 281.4-22.35 279.93-23.35 277.53-23.35L277.53-23.35Q275.38-23.35 273.45-22.35 271.53-21.35 270.32-19.7 269.13-18.05 269.13-16.05L269.13-16.05 269.13-1.5Q269.13-0.9 268.68-0.45 268.23 0 267.63 0L267.63 0Q266.93 0 266.53-0.45 266.13-0.9 266.13-1.5L266.13-1.5 266.13-23.9Q266.13-24.5 266.55-24.95 266.98-25.4 267.63-25.4L267.63-25.4Q268.28-25.4 268.7-24.95 269.13-24.5 269.13-23.9L269.13-23.9 269.13-19.7 267.98-17.9Q268.07-19.5 269-20.98 269.93-22.45 271.38-23.63 272.82-24.8 274.6-25.48 276.38-26.15 278.18-26.15ZM306.37 0.5L306.37 0.5Q302.52 0.5 299.57-1.15 296.62-2.8 294.97-5.75 293.32-8.7 293.32-12.65L293.32-12.65Q293.32-16.9 295-19.9 296.67-22.9 299.35-24.53 302.02-26.15 305.02-26.15L305.02-26.15Q307.22-26.15 309.3-25.38 311.37-24.6 312.97-23.08 314.57-21.55 315.57-19.35 316.57-17.15 316.62-14.25L316.62-14.25Q316.62-13.65 316.17-13.23 315.72-12.8 315.12-12.8L315.12-12.8 295.07-12.8 294.47-15.5 314.17-15.5 313.52-14.9 313.52-15.9Q313.27-18.25 311.97-19.9 310.67-21.55 308.85-22.4 307.02-23.25 305.02-23.25L305.02-23.25Q303.52-23.25 301.95-22.65 300.37-22.05 299.1-20.78 297.82-19.5 297.02-17.53 296.22-15.55 296.22-12.85L296.22-12.85Q296.22-9.9 297.42-7.5 298.62-5.1 300.87-3.7 303.12-2.3 306.32-2.3L306.32-2.3Q308.02-2.3 309.42-2.8 310.82-3.3 311.9-4.13 312.97-4.95 313.67-5.85L313.67-5.85Q314.22-6.3 314.72-6.3L314.72-6.3Q315.27-6.3 315.65-5.9 316.02-5.5 316.02-5L316.02-5Q316.02-4.4 315.52-3.95L315.52-3.95Q314.02-2.15 311.62-0.83 309.22 0.5 306.37 0.5ZM333.87-26.15L333.87-26.15Q336.27-26.15 338.27-25.63 340.27-25.1 341.5-24.2 342.72-23.3 342.72-22.25L342.72-22.25Q342.72-21.75 342.35-21.28 341.97-20.8 341.42-20.8L341.42-20.8Q340.77-20.8 340.39-21.1 340.02-21.4 339.67-21.8 339.32-22.2 338.62-22.55L338.62-22.55Q337.97-22.85 336.75-23.1 335.52-23.35 334.02-23.35L334.02-23.35Q331.22-23.35 328.97-21.95 326.72-20.55 325.42-18.18 324.12-15.8 324.12-12.85L324.12-12.85Q324.12-9.85 325.35-7.45 326.57-5.05 328.8-3.68 331.02-2.3 333.92-2.3L333.92-2.3Q335.92-2.3 337.05-2.65 338.17-3 338.92-3.45L338.92-3.45Q339.92-4 340.35-4.53 340.77-5.05 341.47-5.05L341.47-5.05Q342.07-5.05 342.42-4.67 342.77-4.3 342.77-3.7L342.77-3.7Q342.77-2.9 341.6-1.93 340.42-0.95 338.37-0.23 336.32 0.5 333.62 0.5L333.62 0.5Q329.92 0.5 327.1-1.25 324.27-3 322.69-6.03 321.12-9.05 321.12-12.85L321.12-12.85Q321.12-16.5 322.72-19.5 324.32-22.5 327.17-24.33 330.02-26.15 333.87-26.15ZM346.87-25.45L346.87-25.45 358.52-25.45Q359.12-25.45 359.52-25.03 359.92-24.6 359.92-24L359.92-24Q359.92-23.45 359.52-23.05 359.12-22.65 358.52-22.65L358.52-22.65 346.87-22.65Q346.27-22.65 345.84-23.08 345.42-23.5 345.42-24.05L345.42-24.05Q345.42-24.65 345.84-25.05 346.27-25.45 346.87-25.45ZM352.02-32.5L352.02-32.5Q352.67-32.5 353.09-32.05 353.52-31.6 353.52-31L353.52-31 353.52-5.9Q353.52-4.5 353.89-3.8 354.27-3.1 354.87-2.88 355.47-2.65 356.07-2.65L356.07-2.65Q356.47-2.65 356.79-2.78 357.12-2.9 357.52-2.9L357.52-2.9Q357.97-2.9 358.29-2.55 358.62-2.2 358.62-1.65L358.62-1.65Q358.62-0.95 357.82-0.48 357.02 0 355.92 0L355.92 0Q355.47 0 354.57-0.08 353.67-0.15 352.72-0.63 351.77-1.1 351.14-2.3 350.52-3.5 350.52-5.75L350.52-5.75 350.52-31Q350.52-31.6 350.94-32.05 351.37-32.5 352.02-32.5Z" opacity="1" transform="matrix(1,0,0,1,0,0)" fill="#4790fc" class="wordmark-text-0" data-fill-palette-color="primary" id="text-0"></path></svg></g></svg></g></svg></g></svg></g><g><svg viewBox="0 0 91.03557586412154 57.17397796476221" height="57.17397796476221" width="91.03557586412154"><g><svg xmlns="http://www.w3.org/2000/svg" data-name="Layer 1" viewBox="4.903 26.886 90.94739999999999 57.118600000000015" x="0" y="0" height="57.17397796476221" width="91.03557586412154" class="icon-icon-0" data-fill-palette-color="accent" id="icon-0"><path d="M89.085 71.904A1.582 1.582 0 0 0 90.646 73.466h1.041a1.582 1.582 0 0 0 1.561-1.562V45.622l-4.033 1.431v24.851Z" fill="#0063c6" data-fill-palette-color="accent"></path><path d="M91.166 73.986h0c-2.602 0-4.684 4.554-4.684 10.019H95.85C95.85 78.54 93.769 73.986 91.166 73.986Z" fill="#0063c6" data-fill-palette-color="accent"></path><path d="M23.249 51.087V62.146c0 8.197 12.1 11.71 27.193 11.71 14.963 0 27.063-3.643 27.063-11.71V50.957L50.442 60.325Z" fill="#0063c6" data-fill-palette-color="accent"></path><polygon points="50.312 57.592 95.85 40.808 49.661 26.886 4.903 41.068 50.312 57.592" fill="#0063c6" data-fill-palette-color="accent"></polygon></svg></g></svg></g></svg></g><defs></defs></svg><rect width="395.52" height="45.56204435343399" fill="none" stroke="none" visibility="hidden"></rect></g></svg></g></svg>